<svg xmlns="http://www.w3.org/2000/svg" viewBox="0 0 100 100">
  <defs>
    <linearGradient id="bgGrad" x1="0%" y1="0%" x2="100%" y2="100%">
      <stop offset="0%" style="stop-color:#E89580"/>
      <stop offset="100%" style="stop-color:#D97A5F"/>
    </linearGradient>
  </defs>
  <!-- Rounded background -->
  <rect x="5" y="5" width="90" height="90" rx="18" ry="18" fill="url(#bgGrad)"/>
  
  <!-- House outline -->
  <path d="M50 18 L82 42 L82 48 L78 48 L78 78 L22 78 L22 48 L18 48 L18 42 Z" 
        fill="none" stroke="#FEF5F2" stroke-width="4" stroke-linecap="round" stroke-linejoin="round"/>
  
  <!-- Nail polish bottle -->
  <rect x="30" y="38" width="14" height="10" rx="2" fill="#FEF5F2"/>
  <rect x="28" y="48" width="18" height="24" rx="3" fill="none" stroke="#FEF5F2" stroke-width="3"/>
  
  <!-- Makeup brush -->
  <ellipse cx="60" cy="44" rx="8" ry="12" fill="#FEF5F2"/>
  <rect x="57" y="54" width="6" height="20" rx="2" fill="#FEF5F2"/>
  
  <!-- Sparkles -->
  <path d="M26 30 L26 24 M23 27 L29 27" stroke="#FEF5F2" stroke-width="2" stroke-linecap="round"/>
  <path d="M40 28 L40 22 M37 25 L43 25" stroke="#FEF5F2" stroke-width="2" stroke-linecap="round"/>
  <path d="M72 36 L72 30 M69 33 L75 33" stroke="#FEF5F2" stroke-width="2" stroke-linecap="round"/>
  <circle cx="36" cy="60" r="2" fill="#FEF5F2"/>
</svg>
